# xmcd
#
# Track frame offsets: 
#        150
#        27930
#        48757
#        71210
#
# Disc length: 1198 seconds
#
# Revision: 1
# Processed by: cddbd v1.5.2PL0 Copyright (c) Steve Scherf et al.
# Submitted via: ExactAudioCopy v1.0b6
#
DISCID=2f04ac04
DTITLE=Aerosmith - Hole In My Soul [1997 Sony Records (Japan) CD Singl
DTITLE=e]
DYEAR=1997
DGENRE=Rock
TTITLE0=Hole In My Soul
TTITLE1=Falling In Love (Is Hard On The Knees) [Butcher Mix]
TTITLE2=Falling In Love (Is Hard On The Knees) [Moby Flawed Mix]
TTITLE3=Nine Lives [live]
EXTD=YEAR: 1997
EXTT0=
EXTT1=
EXTT2=
EXTT3=
PLAYORDER=
